<svg width="601" height="601" viewBox="0 0 601 601" fill="none" xmlns="http://www.w3.org/2000/svg">
<circle cx="300" cy="300" r="200" stroke="black" stroke-width="4" stroke-dasharray="8 16 24 32"/>
<circle cx="300.422" cy="300.422" r="175" transform="rotate(32.2887 300.422 300.422)" stroke="black" stroke-width="4" stroke-dasharray="8 16 24 32"/>
<path d="M231.53 231.53C269.965 193.095 322.307 175.58 365.304 167.715C386.769 163.789 405.817 162.284 419.493 161.761C426.33 161.5 431.819 161.484 435.59 161.533C436.784 161.548 437.806 161.573 438.643 161.595C438.666 162.433 438.691 163.454 438.706 164.648C438.755 168.42 438.739 173.909 438.478 180.745C437.955 194.422 436.45 213.47 432.524 234.934C424.659 277.932 407.144 330.274 368.709 368.709C330.274 407.144 277.932 424.659 234.934 432.524C213.47 436.45 194.422 437.954 180.745 438.477C173.909 438.739 168.42 438.755 164.648 438.706C163.454 438.69 162.433 438.667 161.595 438.644C161.572 437.806 161.548 436.784 161.533 435.59C161.484 431.819 161.5 426.33 161.761 419.493C162.284 405.816 163.789 386.769 167.715 365.304C175.58 322.307 193.095 269.965 231.53 231.53Z" fill="white" stroke="black" stroke-width="6"/>
<circle cx="300.119" cy="300.119" r="47" transform="rotate(-45 300.119 300.119)" fill="black" stroke="black" stroke-width="6"/>
<path d="M203.119 300.119C203.119 245.764 227.746 196.367 252.588 160.403C264.989 142.449 277.394 127.916 286.695 117.875C291.345 112.856 295.215 108.963 297.916 106.331C298.771 105.498 299.511 104.793 300.119 104.217C300.728 104.793 301.467 105.498 302.322 106.331C305.024 108.963 308.894 112.856 313.543 117.875C322.844 127.916 335.249 142.449 347.651 160.403C372.493 196.367 397.119 245.764 397.119 300.119C397.119 354.475 372.493 403.871 347.651 439.836C335.249 457.79 322.844 472.323 313.543 482.364C308.894 487.382 305.024 491.275 302.322 493.907C301.467 494.741 300.728 495.447 300.119 496.023C299.511 495.447 298.772 494.741 297.916 493.907C295.215 491.275 291.345 487.382 286.695 482.364C277.394 472.323 264.989 457.79 252.588 439.836C227.746 403.871 203.119 354.475 203.119 300.119Z" fill="white" stroke="black" stroke-width="6"/>
<circle cx="300.119" cy="300.119" r="47" transform="rotate(-45 300.119 300.119)" fill="black" stroke="black" stroke-width="6"/>
<path d="M300.119 203.119C354.475 203.119 403.871 227.745 439.836 252.588C457.79 264.989 472.323 277.394 482.363 286.695C487.382 291.345 491.275 295.215 493.907 297.916C494.741 298.771 495.446 299.511 496.022 300.119C495.446 300.727 494.741 301.467 493.907 302.322C491.275 305.024 487.382 308.894 482.363 313.543C472.323 322.844 457.79 335.249 439.836 347.65C403.871 372.493 354.475 397.119 300.119 397.119C245.764 397.119 196.367 372.493 160.402 347.65C142.449 335.249 127.916 322.844 117.875 313.543C112.856 308.894 108.963 305.024 106.331 302.322C105.498 301.467 104.792 300.728 104.216 300.119C104.792 299.511 105.498 298.771 106.331 297.916C108.963 295.215 112.856 291.345 117.875 286.695C127.916 277.394 142.449 264.989 160.402 252.588C196.367 227.745 245.764 203.119 300.119 203.119Z" fill="white" stroke="black" stroke-width="6"/>
<circle cx="300.119" cy="300.119" r="47" transform="rotate(-45 300.119 300.119)" fill="black" stroke="black" stroke-width="6"/>
<path d="M368.254 231.431C406.689 269.866 424.205 322.208 432.069 365.205C435.995 386.67 437.5 405.717 438.023 419.394C438.285 426.231 438.301 431.72 438.252 435.491C438.236 436.685 438.212 437.707 438.189 438.544C437.351 438.567 436.33 438.591 435.136 438.607C431.365 438.656 425.875 438.64 419.039 438.378C405.362 437.855 386.314 436.351 364.85 432.425C321.853 424.56 269.511 407.045 231.076 368.61C192.641 330.175 175.125 277.832 167.261 234.835C163.335 213.371 161.83 194.323 161.307 180.646C161.045 173.81 161.029 168.321 161.078 164.549C161.094 163.355 161.118 162.333 161.14 161.496C161.978 161.473 163 161.449 164.194 161.434C167.965 161.384 173.455 161.401 180.291 161.662C193.968 162.185 213.016 163.69 234.48 167.616C277.477 175.481 329.819 192.996 368.254 231.431Z" fill="white" stroke="black" stroke-width="6"/>
<circle cx="299.665" cy="300.02" r="47" transform="rotate(45 299.665 300.02)" fill="black" stroke="black" stroke-width="6"/>
<path d="M313.57 293.156L304.102 315H299.789L290.273 293.156H294.117L301.945 312.305L309.727 293.156H313.57Z" fill="white"/>
</svg>
