<svg width="425" height="426" viewBox="0 0 425 426" fill="none" xmlns="http://www.w3.org/2000/svg">
<path d="M281.254 144.431C319.689 182.866 337.205 235.208 345.069 278.205C348.995 299.67 350.5 318.717 351.023 332.394C351.285 339.231 351.301 344.72 351.252 348.491C351.236 349.685 351.212 350.707 351.189 351.544C350.351 351.567 349.33 351.591 348.136 351.607C344.365 351.656 338.875 351.64 332.039 351.378C318.362 350.855 299.314 349.351 277.85 345.425C234.853 337.56 182.511 320.045 144.076 281.61C105.641 243.175 88.1253 190.832 80.2606 147.835C76.3346 126.371 74.8298 107.323 74.3068 93.6462C74.0454 86.8098 74.0292 81.3206 74.0782 77.5492C74.0938 76.355 74.1176 75.3333 74.1404 74.4957C74.978 74.4729 75.9998 74.449 77.1939 74.4335C80.9654 74.3845 86.4546 74.4006 93.291 74.6621C106.968 75.1851 126.016 76.6898 147.48 80.6159C190.477 88.4806 242.819 105.996 281.254 144.431Z" fill="white" stroke="black" stroke-width="6"/>
<circle cx="212.665" cy="213.02" r="47" transform="rotate(45 212.665 213.02)" fill="black" stroke="black" stroke-width="6"/>
</svg>
